STARTFONT 2.1
COMMENT Generated from X font `-adobe-helvetica-medium-r-normal--8-80-75-75-p-46-iso8859-1' by getbdf
FONT -adobe-helvetica-medium-r-normal--8-80-75-75-p-46-iso8859-1
SIZE 8 75 75
FONTBOUNDINGBOX 9 11 0 -2
STARTPROPERTIES 30
FONT_ASCENT 8
FONT_DESCENT 2
DEFAULT_CHAR 0
FOUNDRY "Adobe"
FAMILY_NAME "Helvetica"
WEIGHT_NAME "Medium"
SLANT "R"
SETWIDTH_NAME "Normal"
ADD_STYLE_NAME ""
PIXEL_SIZE 8
POINT_SIZE 80
RESOLUTION_X 75
RESOLUTION_Y 75
SPACING "P"
AVERAGE_WIDTH 46
CHARSET_REGISTRY "ISO8859"
CHARSET_ENCODING "1"
CAP_HEIGHT 6
X_HEIGHT 5
FACE_NAME "Helvetica"
COPYRIGHT "Copyright (c) 1984, 1987 Adobe Systems Incorporated. All Rights Reserved. Copyright (c) 1988, 1991 Digital Equipment Corporation. All Rights Reserved."
NOTICE "Helvetica is a trademark of Linotype-Hell AG and/or its subsidiaries.  "
_DEC_DEVICE_FONTNAMES 214
RELATIVE_SETWIDTH 50
RELATIVE_WEIGHT 50
FULL_NAME "Helvetica"
FONT "-Adobe-Helvetica-Medium-R-Normal--8-80-75-75-P-46-ISO8859-1"
WEIGHT 10
RESOLUTION 103
QUAD_WIDTH 5
ENDPROPERTIES
CHARS 192
STARTCHAR 0
ENCODING 0
SWIDTH 720 0
DWIDTH 6 0
BBX 5 5 1 0
BITMAP
a8
00
88
00
a8
ENDCHAR
STARTCHAR 32
ENCODING 32
SWIDTH 240 0
DWIDTH 2 0
BBX 1 1 0 0
BITMAP
00
ENDCHAR
STARTCHAR 33
ENCODING 33
SWIDTH 240 0
DWIDTH 2 0
BBX 1 6 1 0
BITMAP
80
80
80
80
00
80
ENDCHAR
STARTCHAR 34
ENCODING 34
SWIDTH 360 0
DWIDTH 3 0
BBX 3 3 1 3
BITMAP
a0
a0
a0
ENDCHAR
STARTCHAR 35
ENCODING 35
SWIDTH 600 0
DWIDTH 5 0
BBX 5 5 0 0
BITMAP
50
f8
50
f8
50
ENDCHAR
STARTCHAR 36
ENCODING 36
SWIDTH 600 0
DWIDTH 5 0
BBX 4 7 1 -1
BITMAP
20
70
80
60
10
e0
40
ENDCHAR
STARTCHAR 37
ENCODING 37
SWIDTH 840 0
DWIDTH 7 0
BBX 6 6 1 0
BITMAP
e8
a8
d0
2c
54
5c
ENDCHAR
STARTCHAR 38
ENCODING 38
SWIDTH 720 0
DWIDTH 6 0
BBX 5 6 1 0
BITMAP
40
a0
48
a8
b0
58
ENDCHAR
STARTCHAR 39
ENCODING 39
SWIDTH 240 0
DWIDTH 2 0
BBX 1 2 0 6
BITMAP
80
80
ENDCHAR
STARTCHAR 40
ENCODING 40
SWIDTH 360 0
DWIDTH 3 0
BBX 2 7 1 -1
BITMAP
40
80
80
80
80
80
40
ENDCHAR
STARTCHAR 41
ENCODING 41
SWIDTH 360 0
DWIDTH 3 0
BBX 2 7 1 -1
BITMAP
80
40
40
40
40
40
80
ENDCHAR
STARTCHAR 42
ENCODING 42
SWIDTH 360 0
DWIDTH 3 0
BBX 3 3 1 2
BITMAP
40
e0
40
ENDCHAR
STARTCHAR 43
ENCODING 43
SWIDTH 600 0
DWIDTH 5 0
BBX 5 5 1 0
BITMAP
20
20
f8
20
20
ENDCHAR
STARTCHAR 44
ENCODING 44
SWIDTH 240 0
DWIDTH 2 0
BBX 2 3 0 -2
BITMAP
40
40
80
ENDCHAR
STARTCHAR 45
ENCODING 45
SWIDTH 360 0
DWIDTH 3 0
BBX 2 1 0 2
BITMAP
c0
ENDCHAR
STARTCHAR 46
ENCODING 46
SWIDTH 240 0
DWIDTH 2 0
BBX 1 1 1 0
BITMAP
80
ENDCHAR
STARTCHAR 47
ENCODING 47
SWIDTH 240 0
DWIDTH 2 0
BBX 2 7 1 -1
BITMAP
40
40
40
80
80
80
80
ENDCHAR
STARTCHAR 48
ENCODING 48
SWIDTH 600 0
DWIDTH 5 0
BBX 4 6 1 0
BITMAP
60
90
90
90
90
60
ENDCHAR
STARTCHAR 49
ENCODING 49
SWIDTH 600 0
DWIDTH 5 0
BBX 2 6 2 0
BITMAP
40
c0
40
40
40
40
ENDCHAR
STARTCHAR 50
ENCODING 50
SWIDTH 600 0
DWIDTH 5 0
BBX 4 6 1 0
BITMAP
60
90
10
20
40
f0
ENDCHAR
STARTCHAR 51
ENCODING 51
SWIDTH 600 0
DWIDTH 5 0
BBX 3 6 2 0
BITMAP
c0
20
c0
20
20
c0
ENDCHAR
STARTCHAR 52
ENCODING 52
SWIDTH 600 0
DWIDTH 5 0
BBX 4 6 1 0
BITMAP
20
20
60
f0
20
20
ENDCHAR
STARTCHAR 53
ENCODING 53
SWIDTH 600 0
DWIDTH 5 0
BBX 3 6 2 0
BITMAP
e0
80
c0
20
20
c0
ENDCHAR
STARTCHAR 54
ENCODING 54
SWIDTH 600 0
DWIDTH 5 0
BBX 4 6 1 0
BITMAP
70
80
e0
90
90
60
ENDCHAR
STARTCHAR 55
ENCODING 55
SWIDTH 600 0
DWIDTH 5 0
BBX 4 6 1 0
BITMAP
f0
10
20
40
40
40
ENDCHAR
STARTCHAR 56
ENCODING 56
SWIDTH 600 0
DWIDTH 5 0
BBX 4 6 1 0
BITMAP
60
90
60
90
90
60
ENDCHAR
STARTCHAR 57
ENCODING 57
SWIDTH 600 0
DWIDTH 5 0
BBX 4 6 1 0
BITMAP
60
90
90
70
10
60
ENDCHAR
STARTCHAR 58
ENCODING 58
SWIDTH 240 0
DWIDTH 2 0
BBX 1 4 1 0
BITMAP
80
00
00
80
ENDCHAR
STARTCHAR 59
ENCODING 59
SWIDTH 240 0
DWIDTH 2 0
BBX 2 6 0 -2
BITMAP
40
00
00
40
40
80
ENDCHAR
STARTCHAR 60
ENCODING 60
SWIDTH 600 0
DWIDTH 5 0
BBX 3 5 1 0
BITMAP
20
40
80
40
20
ENDCHAR
STARTCHAR 61
ENCODING 61
SWIDTH 480 0
DWIDTH 4 0
BBX 3 3 1 1
BITMAP
e0
00
e0
ENDCHAR
STARTCHAR 62
ENCODING 62
SWIDTH 600 0
DWIDTH 5 0
BBX 3 5 2 0
BITMAP
80
40
20
40
80
ENDCHAR
STARTCHAR 63
ENCODING 63
SWIDTH 600 0
DWIDTH 5 0
BBX 3 5 2 0
BITMAP
c0
20
40
00
40
ENDCHAR
STARTCHAR 64
ENCODING 64
SWIDTH 1080 0
DWIDTH 9 0
BBX 8 7 1 -1
BITMAP
3e
41
99
a5
9e
80
78
ENDCHAR
STARTCHAR 65
ENCODING 65
SWIDTH 720 0
DWIDTH 6 0
BBX 5 6 1 0
BITMAP
20
20
50
70
88
88
ENDCHAR
STARTCHAR 66
ENCODING 66
SWIDTH 720 0
DWIDTH 6 0
BBX 4 6 2 0
BITMAP
e0
90
e0
90
90
e0
ENDCHAR
STARTCHAR 67
ENCODING 67
SWIDTH 720 0
DWIDTH 6 0
BBX 5 6 1 0
BITMAP
70
88
80
80
88
70
ENDCHAR
STARTCHAR 68
ENCODING 68
SWIDTH 720 0
DWIDTH 6 0
BBX 5 6 1 0
BITMAP
f0
88
88
88
88
f0
ENDCHAR
STARTCHAR 69
ENCODING 69
SWIDTH 720 0
DWIDTH 6 0
BBX 4 6 2 0
BITMAP
f0
80
e0
80
80
f0
ENDCHAR
STARTCHAR 70
ENCODING 70
SWIDTH 600 0
DWIDTH 5 0
BBX 4 6 2 0
BITMAP
f0
80
e0
80
80
80
ENDCHAR
STARTCHAR 71
ENCODING 71
SWIDTH 720 0
DWIDTH 6 0
BBX 5 6 1 0
BITMAP
70
80
98
88
88
70
ENDCHAR
STARTCHAR 72
ENCODING 72
SWIDTH 720 0
DWIDTH 6 0
BBX 5 6 1 0
BITMAP
88
88
f8
88
88
88
ENDCHAR
STARTCHAR 73
ENCODING 73
SWIDTH 240 0
DWIDTH 2 0
BBX 1 6 1 0
BITMAP
80
80
80
80
80
80
ENDCHAR
STARTCHAR 74
ENCODING 74
SWIDTH 480 0
DWIDTH 4 0
BBX 3 6 1 0
BITMAP
20
20
20
20
a0
40
ENDCHAR
STARTCHAR 75
ENCODING 75
SWIDTH 720 0
DWIDTH 6 0
BBX 4 6 2 0
BITMAP
90
a0
c0
e0
90
90
ENDCHAR
STARTCHAR 76
ENCODING 76
SWIDTH 600 0
DWIDTH 5 0
BBX 3 6 2 0
BITMAP
80
80
80
80
80
e0
ENDCHAR
STARTCHAR 77
ENCODING 77
SWIDTH 840 0
DWIDTH 7 0
BBX 5 6 2 0
BITMAP
88
d8
a8
a8
a8
a8
ENDCHAR
STARTCHAR 78
ENCODING 78
SWIDTH 720 0
DWIDTH 6 0
BBX 5 6 1 0
BITMAP
88
c8
a8
a8
98
88
ENDCHAR
STARTCHAR 79
ENCODING 79
SWIDTH 720 0
DWIDTH 6 0
BBX 5 6 1 0
BITMAP
70
88
88
88
88
70
ENDCHAR
STARTCHAR 80
ENCODING 80
SWIDTH 720 0
DWIDTH 6 0
BBX 4 6 2 0
BITMAP
e0
90
90
e0
80
80
ENDCHAR
STARTCHAR 81
ENCODING 81
SWIDTH 720 0
DWIDTH 6 0
BBX 5 8 1 -2
BITMAP
70
88
88
88
88
70
20
10
ENDCHAR
STARTCHAR 82
ENCODING 82
SWIDTH 720 0
DWIDTH 6 0
BBX 4 6 2 0
BITMAP
e0
90
90
e0
90
90
ENDCHAR
STARTCHAR 83
ENCODING 83
SWIDTH 720 0
DWIDTH 6 0
BBX 4 6 2 0
BITMAP
70
80
e0
10
10
e0
ENDCHAR
STARTCHAR 84
ENCODING 84
SWIDTH 480 0
DWIDTH 4 0
BBX 3 6 1 0
BITMAP
e0
40
40
40
40
40
ENDCHAR
STARTCHAR 85
ENCODING 85
SWIDTH 720 0
DWIDTH 6 0
BBX 5 6 1 0
BITMAP
88
88
88
88
88
70
ENDCHAR
STARTCHAR 86
ENCODING 86
SWIDTH 720 0
DWIDTH 6 0
BBX 4 6 2 0
BITMAP
90
90
90
90
a0
40
ENDCHAR
STARTCHAR 87
ENCODING 87
SWIDTH 840 0
DWIDTH 7 0
BBX 7 6 1 0
BITMAP
92
92
92
6c
48
48
ENDCHAR
STARTCHAR 88
ENCODING 88
SWIDTH 720 0
DWIDTH 6 0
BBX 4 6 2 0
BITMAP
90
90
60
60
90
90
ENDCHAR
STARTCHAR 89
ENCODING 89
SWIDTH 720 0
DWIDTH 6 0
BBX 5 6 1 0
BITMAP
c8
48
48
30
20
20
ENDCHAR
STARTCHAR 90
ENCODING 90
SWIDTH 720 0
DWIDTH 6 0
BBX 4 6 2 0
BITMAP
f0
10
20
40
80
f0
ENDCHAR
STARTCHAR 91
ENCODING 91
SWIDTH 240 0
DWIDTH 2 0
BBX 2 7 1 -1
BITMAP
c0
80
80
80
80
80
c0
ENDCHAR
STARTCHAR 92
ENCODING 92
SWIDTH 240 0
DWIDTH 2 0
BBX 2 7 0 -1
BITMAP
80
80
80
40
40
40
40
ENDCHAR
STARTCHAR 93
ENCODING 93
SWIDTH 240 0
DWIDTH 2 0
BBX 2 7 0 -1
BITMAP
c0
40
40
40
40
40
c0
ENDCHAR
STARTCHAR 94
ENCODING 94
SWIDTH 600 0
DWIDTH 5 0
BBX 5 3 0 2
BITMAP
20
50
88
ENDCHAR
STARTCHAR 95
ENCODING 95
SWIDTH 600 0
DWIDTH 5 0
BBX 5 1 0 -1
BITMAP
f8
ENDCHAR
STARTCHAR 96
ENCODING 96
SWIDTH 360 0
DWIDTH 3 0
BBX 2 2 0 6
BITMAP
80
40
ENDCHAR
STARTCHAR 97
ENCODING 97
SWIDTH 480 0
DWIDTH 4 0
BBX 4 5 1 0
BITMAP
c0
20
e0
a0
d0
ENDCHAR
STARTCHAR 98
ENCODING 98
SWIDTH 600 0
DWIDTH 5 0
BBX 4 7 1 0
BITMAP
80
80
e0
90
90
90
e0
ENDCHAR
STARTCHAR 99
ENCODING 99
SWIDTH 480 0
DWIDTH 4 0
BBX 3 5 1 0
BITMAP
60
80
80
80
60
ENDCHAR
STARTCHAR 100
ENCODING 100
SWIDTH 600 0
DWIDTH 5 0
BBX 4 7 1 0
BITMAP
10
10
70
90
90
90
70
ENDCHAR
STARTCHAR 101
ENCODING 101
SWIDTH 480 0
DWIDTH 4 0
BBX 3 5 1 0
BITMAP
40
a0
e0
80
60
ENDCHAR
STARTCHAR 102
ENCODING 102
SWIDTH 360 0
DWIDTH 3 0
BBX 3 7 1 0
BITMAP
20
40
e0
40
40
40
40
ENDCHAR
STARTCHAR 103
ENCODING 103
SWIDTH 600 0
DWIDTH 5 0
BBX 4 6 1 -1
BITMAP
70
90
90
70
10
60
ENDCHAR
STARTCHAR 104
ENCODING 104
SWIDTH 600 0
DWIDTH 5 0
BBX 4 7 1 0
BITMAP
80
80
e0
90
90
90
90
ENDCHAR
STARTCHAR 105
ENCODING 105
SWIDTH 240 0
DWIDTH 2 0
BBX 1 7 1 0
BITMAP
80
00
80
80
80
80
80
ENDCHAR
STARTCHAR 106
ENCODING 106
SWIDTH 240 0
DWIDTH 2 0
BBX 2 9 0 -2
BITMAP
40
00
40
40
40
40
40
40
80
ENDCHAR
STARTCHAR 107
ENCODING 107
SWIDTH 480 0
DWIDTH 4 0
BBX 3 7 1 0
BITMAP
80
80
a0
c0
c0
a0
a0
ENDCHAR
STARTCHAR 108
ENCODING 108
SWIDTH 240 0
DWIDTH 2 0
BBX 1 7 1 0
BITMAP
80
80
80
80
80
80
80
ENDCHAR
STARTCHAR 109
ENCODING 109
SWIDTH 720 0
DWIDTH 6 0
BBX 5 5 1 0
BITMAP
f0
a8
a8
a8
a8
ENDCHAR
STARTCHAR 110
ENCODING 110
SWIDTH 600 0
DWIDTH 5 0
BBX 4 5 1 0
BITMAP
e0
90
90
90
90
ENDCHAR
STARTCHAR 111
ENCODING 111
SWIDTH 600 0
DWIDTH 5 0
BBX 4 5 1 0
BITMAP
60
90
90
90
60
ENDCHAR
STARTCHAR 112
ENCODING 112
SWIDTH 600 0
DWIDTH 5 0
BBX 4 6 1 -1
BITMAP
e0
90
90
90
e0
80
ENDCHAR
STARTCHAR 113
ENCODING 113
SWIDTH 600 0
DWIDTH 5 0
BBX 4 6 1 -1
BITMAP
70
90
90
90
70
10
ENDCHAR
STARTCHAR 114
ENCODING 114
SWIDTH 360 0
DWIDTH 3 0
BBX 3 5 1 0
BITMAP
a0
c0
80
80
80
ENDCHAR
STARTCHAR 115
ENCODING 115
SWIDTH 480 0
DWIDTH 4 0
BBX 3 5 1 0
BITMAP
60
80
60
20
c0
ENDCHAR
STARTCHAR 116
ENCODING 116
SWIDTH 360 0
DWIDTH 3 0
BBX 3 7 1 0
BITMAP
40
40
e0
40
40
40
40
ENDCHAR
STARTCHAR 117
ENCODING 117
SWIDTH 480 0
DWIDTH 4 0
BBX 3 5 1 0
BITMAP
a0
a0
a0
a0
60
ENDCHAR
STARTCHAR 118
ENCODING 118
SWIDTH 600 0
DWIDTH 5 0
BBX 4 5 1 0
BITMAP
90
90
90
a0
40
ENDCHAR
STARTCHAR 119
ENCODING 119
SWIDTH 720 0
DWIDTH 6 0
BBX 5 5 1 0
BITMAP
a8
a8
a8
50
50
ENDCHAR
STARTCHAR 120
ENCODING 120
SWIDTH 600 0
DWIDTH 5 0
BBX 4 5 1 0
BITMAP
90
90
60
90
90
ENDCHAR
STARTCHAR 121
ENCODING 121
SWIDTH 480 0
DWIDTH 4 0
BBX 4 6 1 -1
BITMAP
90
90
90
60
40
80
ENDCHAR
STARTCHAR 122
ENCODING 122
SWIDTH 480 0
DWIDTH 4 0
BBX 3 5 1 0
BITMAP
e0
20
40
80
e0
ENDCHAR
STARTCHAR 123
ENCODING 123
SWIDTH 240 0
DWIDTH 2 0
BBX 3 7 0 -1
BITMAP
20
40
40
c0
40
40
20
ENDCHAR
STARTCHAR 124
ENCODING 124
SWIDTH 240 0
DWIDTH 2 0
BBX 1 7 1 -1
BITMAP
80
80
80
80
80
80
80
ENDCHAR
STARTCHAR 125
ENCODING 125
SWIDTH 240 0
DWIDTH 2 0
BBX 3 7 0 -1
BITMAP
80
40
40
60
40
40
80
ENDCHAR
STARTCHAR 126
ENCODING 126
SWIDTH 720 0
DWIDTH 6 0
BBX 5 2 1 2
BITMAP
48
b0
ENDCHAR
STARTCHAR 160
ENCODING 160
SWIDTH 240 0
DWIDTH 2 0
BBX 1 1 0 0
BITMAP
00
ENDCHAR
STARTCHAR 161
ENCODING 161
SWIDTH 240 0
DWIDTH 2 0
BBX 1 7 1 -2
BITMAP
80
00
80
80
80
80
80
ENDCHAR
STARTCHAR 162
ENCODING 162
SWIDTH 600 0
DWIDTH 5 0
BBX 3 7 1 -1
BITMAP
40
40
a0
80
a0
40
40
ENDCHAR
STARTCHAR 163
ENCODING 163
SWIDTH 600 0
DWIDTH 5 0
BBX 4 6 1 0
BITMAP
30
40
e0
40
40
f0
ENDCHAR
STARTCHAR 164
ENCODING 164
SWIDTH 480 0
DWIDTH 4 0
BBX 5 5 0 0
BITMAP
88
70
50
70
88
ENDCHAR
STARTCHAR 165
ENCODING 165
SWIDTH 720 0
DWIDTH 6 0
BBX 5 5 1 0
BITMAP
88
50
f8
20
20
ENDCHAR
STARTCHAR 166
ENCODING 166
SWIDTH 240 0
DWIDTH 2 0
BBX 1 7 1 -1
BITMAP
80
80
80
00
80
80
80
ENDCHAR
STARTCHAR 167
ENCODING 167
SWIDTH 600 0
DWIDTH 5 0
BBX 4 8 1 -2
BITMAP
70
80
60
90
60
30
10
e0
ENDCHAR
STARTCHAR 168
ENCODING 168
SWIDTH 240 0
DWIDTH 2 0
BBX 4 1 0 5
BITMAP
90
ENDCHAR
STARTCHAR 169
ENCODING 169
SWIDTH 840 0
DWIDTH 7 0
BBX 6 7 1 -1
BITMAP
78
84
b4
a4
b4
84
78
ENDCHAR
STARTCHAR 170
ENCODING 170
SWIDTH 360 0
DWIDTH 3 0
BBX 3 5 0 1
BITMAP
c0
20
e0
00
e0
ENDCHAR
STARTCHAR 171
ENCODING 171
SWIDTH 600 0
DWIDTH 5 0
BBX 4 3 1 1
BITMAP
50
a0
50
ENDCHAR
STARTCHAR 172
ENCODING 172
SWIDTH 720 0
DWIDTH 6 0
BBX 4 3 1 1
BITMAP
f0
10
10
ENDCHAR
STARTCHAR 173
ENCODING 173
SWIDTH 360 0
DWIDTH 3 0
BBX 2 1 0 2
BITMAP
c0
ENDCHAR
STARTCHAR 174
ENCODING 174
SWIDTH 840 0
DWIDTH 7 0
BBX 6 7 1 -1
BITMAP
78
84
b4
b4
ac
84
78
ENDCHAR
STARTCHAR 175
ENCODING 175
SWIDTH 240 0
DWIDTH 2 0
BBX 3 1 0 5
BITMAP
e0
ENDCHAR
STARTCHAR 176
ENCODING 176
SWIDTH 360 0
DWIDTH 3 0
BBX 3 3 1 3
BITMAP
40
a0
40
ENDCHAR
STARTCHAR 177
ENCODING 177
SWIDTH 600 0
DWIDTH 5 0
BBX 4 5 1 0
BITMAP
20
f0
20
00
f0
ENDCHAR
STARTCHAR 178
ENCODING 178
SWIDTH 240 0
DWIDTH 2 0
BBX 2 4 1 2
BITMAP
80
40
80
c0
ENDCHAR
STARTCHAR 179
ENCODING 179
SWIDTH 240 0
DWIDTH 2 0
BBX 3 4 0 2
BITMAP
e0
60
20
c0
ENDCHAR
STARTCHAR 180
ENCODING 180
SWIDTH 240 0
DWIDTH 2 0
BBX 2 2 0 4
BITMAP
40
80
ENDCHAR
STARTCHAR 181
ENCODING 181
SWIDTH 480 0
DWIDTH 4 0
BBX 3 6 1 -2
BITMAP
a0
a0
a0
e0
80
80
ENDCHAR
STARTCHAR 182
ENCODING 182
SWIDTH 600 0
DWIDTH 5 0
BBX 5 8 0 -2
BITMAP
78
d0
d0
d0
50
50
50
50
ENDCHAR
STARTCHAR 183
ENCODING 183
SWIDTH 240 0
DWIDTH 2 0
BBX 1 2 1 1
BITMAP
80
80
ENDCHAR
STARTCHAR 184
ENCODING 184
SWIDTH 240 0
DWIDTH 2 0
BBX 2 2 0 -2
BITMAP
40
80
ENDCHAR
STARTCHAR 185
ENCODING 185
SWIDTH 240 0
DWIDTH 2 0
BBX 2 4 0 2
BITMAP
40
c0
40
40
ENDCHAR
STARTCHAR 186
ENCODING 186
SWIDTH 360 0
DWIDTH 3 0
BBX 3 5 0 1
BITMAP
e0
a0
e0
00
e0
ENDCHAR
STARTCHAR 187
ENCODING 187
SWIDTH 600 0
DWIDTH 5 0
BBX 4 3 1 1
BITMAP
a0
50
a0
ENDCHAR
STARTCHAR 188
ENCODING 188
SWIDTH 840 0
DWIDTH 7 0
BBX 7 7 0 -1
BITMAP
40
c4
48
54
2c
5e
04
ENDCHAR
STARTCHAR 189
ENCODING 189
SWIDTH 840 0
DWIDTH 7 0
BBX 7 7 0 -1
BITMAP
40
c4
48
5c
22
44
0e
ENDCHAR
STARTCHAR 190
ENCODING 190
SWIDTH 840 0
DWIDTH 7 0
BBX 7 7 0 -1
BITMAP
e0
64
28
d4
2c
5e
04
ENDCHAR
STARTCHAR 191
ENCODING 191
SWIDTH 600 0
DWIDTH 5 0
BBX 4 6 1 -1
BITMAP
20
00
20
40
90
60
ENDCHAR
STARTCHAR 192
ENCODING 192
SWIDTH 720 0
DWIDTH 6 0
BBX 5 9 1 0
BITMAP
40
20
00
20
20
50
70
88
88
ENDCHAR
STARTCHAR 193
ENCODING 193
SWIDTH 720 0
DWIDTH 6 0
BBX 5 9 1 0
BITMAP
10
20
00
20
20
50
70
88
88
ENDCHAR
STARTCHAR 194
ENCODING 194
SWIDTH 720 0
DWIDTH 6 0
BBX 5 9 1 0
BITMAP
20
50
00
20
20
50
70
88
88
ENDCHAR
STARTCHAR 195
ENCODING 195
SWIDTH 720 0
DWIDTH 6 0
BBX 5 9 1 0
BITMAP
28
50
00
20
20
50
70
88
88
ENDCHAR
STARTCHAR 196
ENCODING 196
SWIDTH 720 0
DWIDTH 6 0
BBX 5 8 1 0
BITMAP
50
00
20
20
50
70
88
88
ENDCHAR
STARTCHAR 197
ENCODING 197
SWIDTH 720 0
DWIDTH 6 0
BBX 5 9 1 0
BITMAP
20
50
20
20
20
50
70
88
88
ENDCHAR
STARTCHAR 198
ENCODING 198
SWIDTH 960 0
DWIDTH 8 0
BBX 7 6 1 0
BITMAP
3e
30
50
7c
90
9e
ENDCHAR
STARTCHAR 199
ENCODING 199
SWIDTH 720 0
DWIDTH 6 0
BBX 5 8 1 -2
BITMAP
70
88
88
80
88
70
40
80
ENDCHAR
STARTCHAR 200
ENCODING 200
SWIDTH 720 0
DWIDTH 6 0
BBX 4 9 2 0
BITMAP
40
20
00
f0
80
e0
80
80
f0
ENDCHAR
STARTCHAR 201
ENCODING 201
SWIDTH 720 0
DWIDTH 6 0
BBX 4 9 2 0
BITMAP
20
40
00
f0
80
e0
80
80
f0
ENDCHAR
STARTCHAR 202
ENCODING 202
SWIDTH 720 0
DWIDTH 6 0
BBX 4 9 2 0
BITMAP
40
a0
00
f0
80
e0
80
80
f0
ENDCHAR
STARTCHAR 203
ENCODING 203
SWIDTH 720 0
DWIDTH 6 0
BBX 4 8 2 0
BITMAP
a0
00
f0
80
e0
80
80
f0
ENDCHAR
STARTCHAR 204
ENCODING 204
SWIDTH 240 0
DWIDTH 2 0
BBX 2 9 0 0
BITMAP
80
40
00
40
40
40
40
40
40
ENDCHAR
STARTCHAR 205
ENCODING 205
SWIDTH 240 0
DWIDTH 2 0
BBX 2 9 1 0
BITMAP
40
80
00
80
80
80
80
80
80
ENDCHAR
STARTCHAR 206
ENCODING 206
SWIDTH 240 0
DWIDTH 2 0
BBX 3 9 0 0
BITMAP
40
a0
00
40
40
40
40
40
40
ENDCHAR
STARTCHAR 207
ENCODING 207
SWIDTH 240 0
DWIDTH 2 0
BBX 3 8 0 0
BITMAP
a0
00
40
40
40
40
40
40
ENDCHAR
STARTCHAR 208
ENCODING 208
SWIDTH 720 0
DWIDTH 6 0
BBX 5 6 1 0
BITMAP
70
48
e8
48
48
70
ENDCHAR
STARTCHAR 209
ENCODING 209
SWIDTH 720 0
DWIDTH 6 0
BBX 5 9 1 0
BITMAP
28
50
00
88
c8
a8
a8
98
88
ENDCHAR
STARTCHAR 210
ENCODING 210
SWIDTH 720 0
DWIDTH 6 0
BBX 5 9 1 0
BITMAP
40
20
00
70
88
88
88
88
70
ENDCHAR
STARTCHAR 211
ENCODING 211
SWIDTH 720 0
DWIDTH 6 0
BBX 5 9 1 0
BITMAP
10
20
00
70
88
88
88
88
70
ENDCHAR
STARTCHAR 212
ENCODING 212
SWIDTH 720 0
DWIDTH 6 0
BBX 5 9 1 0
BITMAP
20
50
00
70
88
88
88
88
70
ENDCHAR
STARTCHAR 213
ENCODING 213
SWIDTH 720 0
DWIDTH 6 0
BBX 5 9 1 0
BITMAP
28
50
00
70
88
88
88
88
70
ENDCHAR
STARTCHAR 214
ENCODING 214
SWIDTH 720 0
DWIDTH 6 0
BBX 5 8 1 0
BITMAP
50
00
70
88
88
88
88
70
ENDCHAR
STARTCHAR 215
ENCODING 215
SWIDTH 600 0
DWIDTH 5 0
BBX 4 4 1 0
BITMAP
90
60
60
90
ENDCHAR
STARTCHAR 216
ENCODING 216
SWIDTH 720 0
DWIDTH 6 0
BBX 5 8 1 -1
BITMAP
08
78
88
98
a8
c8
f0
80
ENDCHAR
STARTCHAR 217
ENCODING 217
SWIDTH 720 0
DWIDTH 6 0
BBX 5 9 1 0
BITMAP
40
20
00
88
88
88
88
88
70
ENDCHAR
STARTCHAR 218
ENCODING 218
SWIDTH 720 0
DWIDTH 6 0
BBX 5 9 1 0
BITMAP
10
20
00
88
88
88
88
88
70
ENDCHAR
STARTCHAR 219
ENCODING 219
SWIDTH 720 0
DWIDTH 6 0
BBX 5 9 1 0
BITMAP
20
50
00
88
88
88
88
88
70
ENDCHAR
STARTCHAR 220
ENCODING 220
SWIDTH 720 0
DWIDTH 6 0
BBX 5 8 1 0
BITMAP
50
00
88
88
88
88
88
70
ENDCHAR
STARTCHAR 221
ENCODING 221
SWIDTH 720 0
DWIDTH 6 0
BBX 5 9 1 0
BITMAP
08
10
00
c8
48
48
30
20
20
ENDCHAR
STARTCHAR 222
ENCODING 222
SWIDTH 720 0
DWIDTH 6 0
BBX 5 6 1 0
BITMAP
80
f0
88
88
f0
80
ENDCHAR
STARTCHAR 223
ENCODING 223
SWIDTH 720 0
DWIDTH 6 0
BBX 4 7 2 -1
BITMAP
60
90
a0
90
90
a0
80
ENDCHAR
STARTCHAR 224
ENCODING 224
SWIDTH 480 0
DWIDTH 4 0
BBX 4 8 1 0
BITMAP
80
40
00
c0
20
e0
a0
d0
ENDCHAR
STARTCHAR 225
ENCODING 225
SWIDTH 480 0
DWIDTH 4 0
BBX 4 8 1 0
BITMAP
20
40
00
c0
20
e0
a0
d0
ENDCHAR
STARTCHAR 226
ENCODING 226
SWIDTH 480 0
DWIDTH 4 0
BBX 4 8 1 0
BITMAP
40
a0
00
c0
20
e0
a0
d0
ENDCHAR
STARTCHAR 227
ENCODING 227
SWIDTH 480 0
DWIDTH 4 0
BBX 5 8 0 0
BITMAP
68
b0
00
60
10
70
50
68
ENDCHAR
STARTCHAR 228
ENCODING 228
SWIDTH 480 0
DWIDTH 4 0
BBX 4 7 1 0
BITMAP
a0
00
c0
20
e0
a0
d0
ENDCHAR
STARTCHAR 229
ENCODING 229
SWIDTH 480 0
DWIDTH 4 0
BBX 4 8 1 0
BITMAP
40
a0
40
c0
20
e0
a0
d0
ENDCHAR
STARTCHAR 230
ENCODING 230
SWIDTH 720 0
DWIDTH 6 0
BBX 5 5 1 0
BITMAP
d0
28
f8
a0
d8
ENDCHAR
STARTCHAR 231
ENCODING 231
SWIDTH 480 0
DWIDTH 4 0
BBX 3 7 1 -2
BITMAP
60
80
80
80
60
40
80
ENDCHAR
STARTCHAR 232
ENCODING 232
SWIDTH 480 0
DWIDTH 4 0
BBX 3 8 1 0
BITMAP
40
20
00
40
a0
e0
80
60
ENDCHAR
STARTCHAR 233
ENCODING 233
SWIDTH 480 0
DWIDTH 4 0
BBX 3 8 1 0
BITMAP
20
40
00
40
a0
e0
80
60
ENDCHAR
STARTCHAR 234
ENCODING 234
SWIDTH 480 0
DWIDTH 4 0
BBX 3 8 1 0
BITMAP
40
a0
00
40
a0
e0
80
60
ENDCHAR
STARTCHAR 235
ENCODING 235
SWIDTH 480 0
DWIDTH 4 0
BBX 3 7 1 0
BITMAP
a0
00
40
a0
e0
80
60
ENDCHAR
STARTCHAR 236
ENCODING 236
SWIDTH 240 0
DWIDTH 2 0
BBX 2 8 0 0
BITMAP
80
40
00
40
40
40
40
40
ENDCHAR
STARTCHAR 237
ENCODING 237
SWIDTH 240 0
DWIDTH 2 0
BBX 2 8 1 0
BITMAP
40
80
00
80
80
80
80
80
ENDCHAR
STARTCHAR 238
ENCODING 238
SWIDTH 240 0
DWIDTH 2 0
BBX 3 8 0 0
BITMAP
40
a0
00
40
40
40
40
40
ENDCHAR
STARTCHAR 239
ENCODING 239
SWIDTH 240 0
DWIDTH 2 0
BBX 3 7 0 0
BITMAP
a0
00
40
40
40
40
40
ENDCHAR
STARTCHAR 240
ENCODING 240
SWIDTH 600 0
DWIDTH 5 0
BBX 4 8 1 0
BITMAP
90
60
a0
70
90
90
90
60
ENDCHAR
STARTCHAR 241
ENCODING 241
SWIDTH 600 0
DWIDTH 5 0
BBX 4 8 1 0
BITMAP
50
a0
00
e0
90
90
90
90
ENDCHAR
STARTCHAR 242
ENCODING 242
SWIDTH 600 0
DWIDTH 5 0
BBX 4 8 1 0
BITMAP
40
20
00
60
90
90
90
60
ENDCHAR
STARTCHAR 243
ENCODING 243
SWIDTH 600 0
DWIDTH 5 0
BBX 4 8 1 0
BITMAP
10
20
00
60
90
90
90
60
ENDCHAR
STARTCHAR 244
ENCODING 244
SWIDTH 600 0
DWIDTH 5 0
BBX 4 8 1 0
BITMAP
40
a0
00
60
90
90
90
60
ENDCHAR
STARTCHAR 245
ENCODING 245
SWIDTH 600 0
DWIDTH 5 0
BBX 4 8 1 0
BITMAP
50
a0
00
60
90
90
90
60
ENDCHAR
STARTCHAR 246
ENCODING 246
SWIDTH 600 0
DWIDTH 5 0
BBX 4 7 1 0
BITMAP
90
00
60
90
90
90
60
ENDCHAR
STARTCHAR 247
ENCODING 247
SWIDTH 600 0
DWIDTH 5 0
BBX 4 5 1 0
BITMAP
20
00
f0
00
20
ENDCHAR
STARTCHAR 248
ENCODING 248
SWIDTH 600 0
DWIDTH 5 0
BBX 7 7 0 -1
BITMAP
02
3c
48
58
68
70
80
ENDCHAR
STARTCHAR 249
ENCODING 249
SWIDTH 480 0
DWIDTH 4 0
BBX 3 8 1 0
BITMAP
80
40
00
a0
a0
a0
a0
60
ENDCHAR
STARTCHAR 250
ENCODING 250
SWIDTH 480 0
DWIDTH 4 0
BBX 3 8 1 0
BITMAP
20
40
00
a0
a0
a0
a0
60
ENDCHAR
STARTCHAR 251
ENCODING 251
SWIDTH 480 0
DWIDTH 4 0
BBX 3 8 1 0
BITMAP
40
a0
00
a0
a0
a0
a0
60
ENDCHAR
STARTCHAR 252
ENCODING 252
SWIDTH 480 0
DWIDTH 4 0
BBX 3 7 1 0
BITMAP
a0
00
a0
a0
a0
a0
60
ENDCHAR
STARTCHAR 253
ENCODING 253
SWIDTH 480 0
DWIDTH 4 0
BBX 4 9 1 -1
BITMAP
10
20
00
90
90
90
60
40
80
ENDCHAR
STARTCHAR 254
ENCODING 254
SWIDTH 600 0
DWIDTH 5 0
BBX 4 7 1 -1
BITMAP
80
e0
90
90
90
e0
80
ENDCHAR
STARTCHAR 255
ENCODING 255
SWIDTH 480 0
DWIDTH 4 0
BBX 4 8 1 -1
BITMAP
50
00
90
90
90
60
40
80
ENDCHAR
ENDFONT
